<svg width="256" height="256" viewBox="0 0 256 256" fill="none" xmlns="http://www.w3.org/2000/svg">
  <defs>
    <linearGradient id="bg" x1="28" y1="24" x2="224" y2="232" gradientUnits="userSpaceOnUse">
      <stop stop-color="#F7E1E1"/>
      <stop offset="0.52" stop-color="#E4B0B0"/>
      <stop offset="1" stop-color="#B66262"/>
    </linearGradient>
    <linearGradient id="panel" x1="56" y1="44" x2="206" y2="212" gradientUnits="userSpaceOnUse">
      <stop stop-color="#FFF2F2" stop-opacity="0.96"/>
      <stop offset="1" stop-color="#F1D1D1" stop-opacity="0.9"/>
    </linearGradient>
    <radialGradient id="glow" cx="0" cy="0" r="1" gradientUnits="userSpaceOnUse" gradientTransform="translate(128 84) rotate(90) scale(104)">
      <stop stop-color="#FFE5E5"/>
      <stop offset="1" stop-color="#FFE5E5" stop-opacity="0"/>
    </radialGradient>
  </defs>

  <rect x="10" y="10" width="236" height="236" rx="34" fill="url(#bg)"/>
  <rect x="20" y="20" width="216" height="216" rx="28" fill="#4E1111" fill-opacity="0.14"/>
  <rect x="28" y="28" width="200" height="200" rx="24" fill="url(#panel)"/>
  <ellipse cx="128" cy="96" rx="92" ry="74" fill="url(#glow)"/>

  <path d="M77 201C80.9 164.7 100 146.5 128 146.5C156 146.5 175.1 164.7 179 201" stroke="#7F2121" stroke-width="14" stroke-linecap="round"/>
  <circle cx="128" cy="104" r="38" fill="#7F2121" fill-opacity="0.18"/>
  <circle cx="128" cy="100" r="34" fill="#982D2D"/>
  <path d="M94 198C99.5 166.8 112.8 151 128 151C143.2 151 156.5 166.8 162 198" fill="#982D2D"/>
  <path d="M105 44L114 58L128 49L142 58L151 44" stroke="#B43B3B" stroke-width="10" stroke-linecap="round" stroke-linejoin="round"/>
  <path d="M80 214H176" stroke="#B43B3B" stroke-width="8" stroke-linecap="round" opacity="0.5"/>
</svg>
